<?xml version="1.0" encoding="UTF-8"?><svg id="Layer_1" xmlns="http://www.w3.org/2000/svg" viewBox="0 0 256 256"><defs><style>.cls-1{fill:#334;stroke-width:0px;}@media(prefers-color-scheme:dark){.cls-1{fill:#fff;}}</style></defs><path class="cls-1" d="m99.06,99.08c6.32-6.33,9.81-14.74,9.81-23.68s-3.48-17.36-9.81-23.68c-13.05-13.06-34.29-13.06-47.35,0-6.32,6.33-9.81,14.74-9.81,23.68s3.48,17.36,9.81,23.68c13.05,13.06,34.29,13.06,47.35,0Zm-33.82-33.84c5.59-5.6,14.7-5.6,20.29,0,2.71,2.71,4.2,6.32,4.2,10.15s-1.49,7.44-4.2,10.15c-5.59,5.6-14.7,5.6-20.29,0-2.71-2.71-4.2-6.32-4.2-10.15s1.49-7.44,4.2-10.15Z"/><path class="cls-1" d="m75.39,113.65c-15.33,0-29.74,5.97-40.58,16.81-10.84,10.84-16.81,25.25-16.81,40.58v7.17c0,1.32,1.07,2.39,2.39,2.39h14.35c1.32,0,2.39-1.07,2.39-2.39v-7.17c0-10.22,3.98-19.83,11.21-27.05,7.46-7.46,17.47-11.46,28.06-11.19,9.18.23,18.04,3.8,24.81,10,8.43,7.73,12.91,18.53,12.41,29.96-.4,9.18-4.14,17.96-10.47,24.62-7.3,7.68-17.2,11.93-27.76,11.93h-7.17c-1.32,0-2.39,1.07-2.39,2.39v23.91c0,1.32,1.07,2.39,2.39,2.39h14.35c1.32,0,2.39-1.07,2.39-2.39v-7.96c11.69-1.95,22.47-7.47,31.02-16.02,10.97-10.97,16.96-25.61,16.81-41.15-.14-14.79-6.05-29.04-16.41-39.61-10.88-11.1-25.46-17.22-40.98-17.22Z"/><path class="cls-1" d="m238,75.39c0-31.76-25.93-57.57-57.73-57.39-31.67.18-57.06,26.35-57.06,58.02v6.54c0,1.32,1.07,2.39,2.39,2.39h14.35c1.32,0,2.39-1.07,2.39-2.39v-6.68c0-20.78,16.99-38.49,37.76-38.76,21.49-.27,39.03,17.26,38.75,38.75-.27,20.78-17.98,37.76-38.76,37.76h-6.68c-1.32,0-2.39,1.07-2.39,2.39v22.9c-5.28,1.56-10.12,4.42-14.12,8.42-13.06,13.05-13.06,34.29,0,47.35,6.33,6.32,14.74,9.81,23.68,9.81s17.36-3.48,23.68-9.81c13.06-13.05,13.06-34.29,0-47.35-4-4-8.84-6.86-14.12-8.42v-6.96c27.11-4.57,47.83-28.21,47.83-56.59Zm-47.24,105.8c-2.71,2.71-6.32,4.2-10.15,4.2s-7.44-1.49-10.15-4.2c-5.6-5.59-5.6-14.7,0-20.29,2.71-2.71,6.32-4.2,10.15-4.2s7.44,1.49,10.15,4.2c5.6,5.59,5.6,14.7,0,20.29Z"/></svg>