<?xml version="1.0" encoding="UTF-8"?><svg id="Layer_1" xmlns="http://www.w3.org/2000/svg" viewBox="0 0 256 256"><defs><style>.cls-1{fill:#334;}.cls-1,.cls-2{stroke-width:0px;}.cls-2{fill:#fff;}</style></defs><rect class="cls-2" x="1" y="1" width="254" height="254" rx="73.91" ry="73.91"/><path class="cls-1" d="m57.57,84.96c0-7.32,2.85-14.2,8.02-19.38,10.68-10.68,28.06-10.68,38.74,0,5.17,5.18,8.02,12.06,8.02,19.38s-2.85,14.2-8.02,19.38c-10.68,10.68-28.06,10.68-38.74,0-5.17-5.18-8.02-12.06-8.02-19.38Zm39.13,0c0-3.14-1.22-6.09-3.44-8.3-4.58-4.58-12.02-4.58-16.6,0-2.22,2.22-3.44,5.17-3.44,8.3s1.22,6.09,3.44,8.31c4.58,4.58,12.02,4.58,16.6,0,2.22-2.22,3.44-5.17,3.44-8.3Z"/><path class="cls-1" d="m51.75,130.01c8.87-8.87,20.66-13.75,33.2-13.75,12.7,0,24.63,5.01,33.53,14.09s13.31,20.3,13.42,32.4c.12,12.72-4.77,24.69-13.75,33.67-7,7-15.81,11.51-25.38,13.11v6.51c0,1.08-.88,1.96-1.96,1.96h-11.74c-1.08,0-1.96-.88-1.96-1.96v-19.57c0-1.08.88-1.96,1.96-1.96h5.87c8.64,0,16.74-3.47,22.71-9.76,5.18-5.45,8.24-12.63,8.56-20.14.41-9.35-3.25-18.19-10.15-24.51-5.54-5.08-12.78-7.99-20.3-8.19-8.67-.22-16.85,3.05-22.96,9.16-5.91,5.91-9.17,13.77-9.17,22.14v5.87c0,1.08-.88,1.96-1.96,1.96h-11.74c-1.08,0-1.96-.88-1.96-1.96v-5.87c0-12.54,4.88-24.33,13.75-33.2Z"/><path class="cls-1" d="m171.04,190.61c-7.32,0-14.2-2.85-19.38-8.02-10.68-10.68-10.68-28.06,0-38.74,5.18-5.17,12.06-8.02,19.38-8.02s14.2,2.85,19.38,8.02c10.68,10.68,10.68,28.06,0,38.74-5.18,5.17-12.06,8.02-19.38,8.02Zm0-39.13c-3.14,0-6.09,1.22-8.3,3.44-4.58,4.58-4.58,12.02,0,16.6,2.22,2.22,5.17,3.44,8.3,3.44s6.09-1.22,8.31-3.44c4.58-4.58,4.58-12.02,0-16.6-2.22-2.22-5.17-3.44-8.3-3.44Z"/><path class="cls-1" d="m176.91,139.74h-11.74c-1.08,0-1.96-.88-1.96-1.96v-19.57c0-1.08.88-1.96,1.96-1.96h5.46c17,0,31.49-13.9,31.71-30.9.22-17.58-14.13-31.93-31.71-31.71-17,.22-30.9,14.71-30.9,31.71v5.46c0,1.08-.88,1.96-1.96,1.96h-11.74c-1.08,0-1.96-.88-1.96-1.96v-5.35c0-25.91,20.77-47.32,46.68-47.47,26.02-.15,47.23,20.97,47.23,46.96,0,23.23-16.95,42.57-39.13,46.3v6.52c0,1.08-.88,1.96-1.96,1.96Z"/></svg>